<?xml version="1.0" encoding="utf-8"?>
<!-- Generator: Adobe Illustrator 19.1.1, SVG Export Plug-In . SVG Version: 6.00 Build 0)  -->
<svg version="1.1" id="Phone_number" xmlns="http://www.w3.org/2000/svg" xmlns:xlink="http://www.w3.org/1999/xlink" x="0px"
	 y="0px" viewBox="-41 164.9 512 512" style="enable-background:new -41 164.9 512 512;" xml:space="preserve">
<style type="text/css">
	.st0{fill:#FFFFFF;}
</style>
<g>
	<path class="st0" d="M279.4,550.9c-16.1,0.1-29.5-3.6-42.5-8.8c-67.8-27.5-114-76.4-141-143.7c-8.1-20.1-9.2-41.2-2-62.1
		c5-14.5,14.4-25.9,26.4-35c11.2-8.5,24.1-7.7,36.8-4.5c7.2,1.9,11.6,7.7,13.8,14.7c5.2,16.3,10.2,32.7,15.1,49.1
		c2.7,8.9,1.3,17.1-5.8,23.8c-4.3,4.1-8.2,8.7-12.4,13c-2.5,2.5-2.8,4.9-1,8c16.8,29.4,39.2,53.3,69,69.9c4.1,2.3,6.7,2.1,9.7-1.6
		c5.4-6.5,11.3-12.6,17.1-18.9c6.6-7.3,14.3-9.2,22.9-4.5c16.5,9,32.8,18.4,49,28c6.9,4.1,9.2,10.6,7.6,18.5
		c-0.3,1.3-0.4,2.6-0.7,3.9C334.5,532.2,310.7,550.9,279.4,550.9z M143.2,310c-4.4,1.4-9.6,1.6-12.9,4.3
		c-10.8,8.6-19.5,18.9-22.7,33.1c-4.1,18-1.6,35.4,5.8,51.7c27.5,60.3,69.9,105.7,133.2,129.1c8.5,3.1,17.6,5.2,26.6,6.4
		c25.4,3.4,47.7-13,52.7-37.7c0.6-3,0.2-5-2.7-6.6c-14.4-8.1-28.7-16.3-42.9-24.5c-2.6-1.5-4.4-1.1-6.5,1.2
		c-5.7,6.5-11.6,12.9-17.5,19.2c-8.4,9-15.4,10.3-26.3,4.5c-33.8-18-58.9-44.7-77.6-77.8c-5.4-9.6-4.3-17.8,3.2-26
		c3.5-3.8,6.9-7.8,10.7-11.1c4.8-4.1,5.1-8.5,3.2-14.2c-4.5-13.4-8.5-27-12.6-40.5C154.4,312.2,152.5,310.8,143.2,310z"/>
	<path class="st0" d="M350.7,418.7c0,0.8,0,1.2,0,1.5c0.1,6.2-2.3,9.4-7,9.5c-4.8,0.1-7.4-3-7.4-9.2c-0.2-16.9-3.6-33.2-11.2-48.3
		c-21.8-43.7-57.2-67.1-106.2-69.7c-0.3,0-0.7,0-1,0c-5.5-0.2-8.9-3.2-8.7-7.6c0.2-4.2,3.6-7,8.8-6.9c18.2,0.5,35.8,3.8,52.3,11.5
		c45.1,21.1,71.3,56.5,79.1,105.6C350.3,409.9,350.4,414.6,350.7,418.7z"/>
	<path class="st0" d="M314,416.6c0,1.2,0,2.3,0,3.5c-0.1,5.4-2.6,8.5-6.9,8.5c-4.1,0-6.4-3-7.1-8c-1.1-8.1-1.7-16.3-4-24
		c-10.1-34.4-41.9-58.7-77.8-59.9c-1.3,0-2.7,0-4-0.3c-4.1-0.9-6.5-3.4-6.1-7.8c0.4-4.1,3.2-6.7,7.1-6.2c10.2,1.2,20.7,2,30.4,4.9
		C284.6,339.2,312.8,376.5,314,416.6z"/>
	<path class="st0" d="M217.7,358c30.9,0.7,58.2,26,61.1,55.6c0.2,2.2,0.6,4.3,0.7,6.4c0.2,5.3-2.3,8.6-6.7,8.8
		c-4.7,0.3-7.4-2.6-7.7-8.3c-1.2-23.5-16.7-42.2-39.4-47.3c-3.1-0.7-6.2-0.9-9.4-1.3c-5.3-0.6-8.4-3.4-8.1-7.5
		c0.3-4,3.5-6.4,8.6-6.5C217.6,358,218.2,358,217.7,358z"/>
</g>
<g>
	<path class="st0" d="M215,218.6c111.7,0,202.3,90.6,202.3,202.3S326.7,623.2,215,623.2S12.7,532.6,12.7,420.9
		S103.3,218.6,215,218.6 M215,203.6c-29.3,0-57.8,5.7-84.6,17.1c-25.9,10.9-49.1,26.6-69.1,46.6c-19.9,19.9-35.6,43.2-46.6,69.1
		C3.4,363.2-2.4,391.6-2.4,421c0,29.4,5.7,57.8,17.1,84.6c10.9,25.9,26.6,49.1,46.6,69.1c19.9,19.9,43.2,35.6,69.1,46.6
		c26.8,11.3,55.2,17.1,84.6,17.1s57.8-5.7,84.6-17.1c25.9-10.9,49.1-26.6,69.1-46.6c19.9-19.9,35.6-43.2,46.6-69.1
		c11.3-26.8,17.1-55.2,17.1-84.6s-5.7-57.8-17.1-84.6c-10.9-25.9-26.6-49.1-46.6-69.1c-19.9-19.9-43.2-35.6-69.1-46.6
		C272.8,209.4,244.3,203.6,215,203.6L215,203.6z"/>
</g>
</svg>
