<?xml version="1.0" encoding="utf-8"?>
<!-- Generator: Adobe Illustrator 19.1.1, SVG Export Plug-In . SVG Version: 6.00 Build 0)  -->
<svg version="1.1" id="E-mail" xmlns="http://www.w3.org/2000/svg" xmlns:xlink="http://www.w3.org/1999/xlink" x="0px" y="0px"
	 viewBox="-41 164.9 512 512" style="enable-background:new -41 164.9 512 512;" xml:space="preserve">
<style type="text/css">
	.st0{fill:#FFFFFF;}
</style>
<g>
	<path class="st0" d="M265.8,210.2c83.3,18.8,149.2,88.1,164,172.1c0.9,5.3,2.8,19.5,3.4,32c0.5,11.4-0.2,21.4-0.3,22.3
		C431.8,457,428,477,420.5,496c-31,78.5-88,125.7-171.3,140.7c-7.7,1.4-15.4,2.1-23.1,3.1c-6.7,0-13.3,0-20,0
		c-1.8-0.4-3.5-0.8-5.3-1.1c-14.1-2.4-28.6-3.2-42.2-7.3c-85.5-26-137.7-83-156.4-170.5c-1.1-5.2-5-30.9-3.1-56.8
		c1.7-23.4,8.9-47,12.4-55.9C42.4,269.4,99.5,222.1,183,207c3.8-0.7,21.3-2.1,39.4-1.5C240.8,206.2,260,208.9,265.8,210.2z
		 M417.3,422c0-111.5-89.8-201.3-201.5-201.4c-110.7-0.1-200.7,90-201.2,200.7c-0.5,110.9,90.6,202.1,201.1,202
		C327.2,623.1,417.3,533.4,417.3,422z"/>
	<path class="st0" d="M216,325.2c36.2,0,72.3,0,108.5,0c18.3,0,27.2,8.9,27.2,27.3c0,46.7,0,93.3,0,140c0,16.6-9.3,26.1-26,26.1
		c-73.5,0-147,0-220.4,0c-16.6,0-26-9.5-26-26.1c0-47.2,0-94.3,0-141.5c0-16.3,9.4-25.8,25.7-25.8C142,325.2,179,325.2,216,325.2z
		 M106.5,339.9c1.8,2,2.7,3.1,3.8,4.1c34.1,31.6,68.3,63.1,102.3,94.8c3.2,2.9,4.8,1.9,7.3-0.5c33.5-31.3,67-62.5,100.5-93.8
		c1.2-1.2,2.3-2.5,4.2-4.6C251.5,339.9,179.6,339.9,106.5,339.9z M324.4,504c-1.3-1.7-1.8-2.5-2.5-3.2
		c-23.6-22.1-47.3-44.1-70.9-66.2c-2.5-2.3-4.1-1.8-6.2,0.3c-7.2,6.9-14.6,13.7-21.9,20.5c-5,4.6-8.5,4.7-13.5,0.1
		c-7.4-6.7-14.8-13.4-22-20.4c-2.9-2.8-4.7-3-7.7-0.1c-22.9,21.6-46,43-69,64.5c-1.2,1.2-2.3,2.5-4.1,4.5
		C179.6,504,251.4,504,324.4,504z M172.7,421.6c-25.9-24-51.4-47.5-77.5-71.7c0,48.4,0,95.5,0,144
		C121.5,469.3,146.9,445.7,172.7,421.6z M335.8,493.8c0-48.6,0-95.5,0-143.9c-26.2,24.4-51.4,48-77.1,71.9
		C284.5,446,309.7,469.5,335.8,493.8z"/>
	<path class="st0" d="M156.5,176.8"/>
</g>
</svg>
