<?xml version="1.0" encoding="utf-8"?>
<!-- Generator: Adobe Illustrator 19.1.1, SVG Export Plug-In . SVG Version: 6.00 Build 0)  -->
<svg version="1.1" id="Adress" xmlns="http://www.w3.org/2000/svg" xmlns:xlink="http://www.w3.org/1999/xlink" x="0px" y="0px"
	 viewBox="-41 164.9 512 512" style="enable-background:new -41 164.9 512 512;" xml:space="preserve">
<style type="text/css">
	.st0{fill:#FFFFFF;}
</style>
<g>
	<path class="st0" d="M0.5,392.7c6.7-46.3,25.7-86.9,58.2-120.7c36.2-37.7,80.4-59.9,132.6-66c6.2-0.7,25.7-2.1,38.5-0.9
		c12.9,1.2,16,1.4,22.3,2.4c40.1,7,75.8,23.5,106.4,50.4c41.9,36.9,66.6,83.2,73.3,138.8c0.4,3.2,1.5,14.9,1.4,26.7
		c0,11.8-1.2,23.8-1.7,27.7c-6.7,46-25.4,86.2-57.5,120c-36.2,38.1-80.5,60.4-132.8,66.6c-2.8,0.3-13.3,1.2-24.4,1.2
		c-12.6,0-26-0.9-29.9-1.5c-46-6.7-86.2-25.4-120-57.5C28.8,543.7,6.5,499.4,0.3,447.1c-0.4-3.1-1.8-14.5-1.8-26.2
		C-1.5,408.9,0,396.6,0.5,392.7z M417.4,422.3c1.2-110.8-91-202-201.4-202c-110.1,0-201,90.6-201.6,200.5
		C13.8,532,105.3,623.2,215.3,623.6C326.1,623.9,418.2,532.6,417.4,422.3z"/>
	<path class="st0" d="M111.4,476.2c0-13.8-0.2-27.7,0.1-41.5c0.1-4.5-1.6-5.9-5.8-5.8c-5.7,0.2-11.3,0-17,0c-3.9,0-6.7-1.7-8.3-5.3
		c-1.6-3.7-0.6-6.9,2-9.6c2.9-3.2,6.1-6.1,9.2-9.2c39.1-38.2,78.2-76.4,117.3-114.6c7.8-7.6,11.1-7.6,18.6,0.1
		c39.4,40.2,78.9,80.4,118.3,120.6c1,1.1,2.1,2.1,3.1,3.3c2.4,2.9,3.7,6.6,1.4,9.6c-1.8,2.3-5.1,4.5-7.9,4.8
		c-6.2,0.7-12.6,0.3-19,0.3c-8.6,0-8.6,0-8.6,8.4c0,26.2,0,52.3,0,78.5c0,9.7-3,12.6-12.9,12.6c-18,0-36,0-54,0
		c-9.5,0-12.5-3.1-12.5-12.6c0-18.8-0.2-37.7,0.1-56.5c0.1-5.2-1.9-6.6-6.7-6.5c-9.5,0.2-19,0.2-28.5,0c-4.7-0.1-6.4,1.5-6.4,6.3
		c0.2,18.7,0.1,37.3,0.1,56c0,10.6-2.7,13.3-13.3,13.3c-18.8,0-37.7,0-56.5,0c-9.8,0-12.8-3.1-12.8-12.8
		C111.4,502.5,111.4,489.4,111.4,476.2z M111.5,410.6c2.1,0.3,2.9,0.6,3.6,0.6c12.3,0.7,13.7,2,13.7,14.2c0,26.2,0.1,52.3-0.1,78.5
		c0,5,1.5,6.7,6.6,6.5c11.8-0.4,23.7-0.3,35.5,0c4.5,0.1,5.7-1.4,5.6-5.7c-0.2-19-0.1-38-0.1-57c0-9.4,2.9-12.4,12.1-12.4
		c17.5,0,35,0,52.5,0c8.9,0,11.7,2.8,11.7,11.6c0,19.3,0.1,38.7,0,58c0,4,1.2,5.6,5.4,5.5c10.8-0.2,21.7-0.1,32.5-0.1
		c6.6,0,6.7,0,6.7-6.7c0-27,0-54,0-81c0-8.4,3-11.3,11.5-11.4c3.5,0,7,0,10.4,0c-0.7-2.6-1.6-3.8-2.7-4.8
		c-31.5-32.1-63.1-64.2-94.5-96.4c-3.3-3.4-5.2-3-8.4,0.1c-32.6,32-65.3,63.9-97.9,95.8C114.6,407.2,113.4,408.5,111.5,410.6z"/>
</g>
</svg>
