<?xml version="1.0" standalone="no"?>
<!DOCTYPE svg PUBLIC "-//W3C//DTD SVG 20010904//EN"
 "http://www.w3.org/TR/2001/REC-SVG-20010904/DTD/svg10.dtd">
<svg version="1.0" xmlns="http://www.w3.org/2000/svg"
 width="2469.000000pt" height="2469.000000pt" viewBox="0 0 2469.000000 2469.000000"
 preserveAspectRatio="xMidYMid meet">
<metadata>
Created by potrace 1.15, written by Peter Selinger 2001-2017
</metadata>
<g transform="translate(0.000000,2469.000000) scale(0.100000,-0.100000)"
fill="#000000" stroke="none">
<path d="M12055 24684 c-1120 -33 -2135 -188 -3170 -485 -1684 -483 -3299
-1353 -4626 -2490 -375 -322 -836 -768 -1133 -1099 -327 -364 -769 -916 -939
-1175 -29 -45 -25 -5 -72 -637 -14 -186 -37 -490 -51 -675 -15 -186 -26 -354
-26 -373 0 -19 -22 -338 -49 -709 -28 -370 -48 -678 -47 -683 2 -5 23 39 47
99 129 318 343 770 518 1093 904 1666 2186 3071 3738 4095 178 117 497 313
628 385 42 23 77 46 77 51 0 6 5 7 10 4 6 -3 10 -1 10 5 0 6 4 9 9 6 5 -4 11
-3 13 1 4 11 673 339 818 402 1592 693 3375 1005 5190 910 1991 -104 3903
-740 5562 -1851 2240 -1499 3866 -3768 4572 -6378 362 -1342 479 -2801 330
-4135 -134 -1206 -453 -2321 -985 -3447 -79 -167 -247 -494 -302 -588 -15 -27
0 -16 64 46 145 140 1408 1333 1549 1464 74 68 193 178 263 245 71 66 133 119
138 118 5 -2 8 0 7 5 0 4 2 14 5 22 13 29 89 317 137 515 410 1688 456 3501
134 5210 -600 3180 -2418 5984 -5089 7847 -1789 1248 -3903 2001 -6085 2168
-341 26 -952 43 -1245 34z"/>
<path d="M13445 20720 l-640 -339 -168 -632 -169 -633 67 -170 67 -171 309
-234 c170 -129 309 -237 309 -241 0 -3 -71 -116 -158 -250 l-157 -245 -443
-60 -443 -61 -767 -766 -767 -766 -330 -206 -330 -206 -495 -479 -495 -480
-214 0 -213 -1 218 226 218 225 -73 72 -72 72 -189 -195 -188 -195 -89 86
c-48 47 -916 884 -1928 1859 -1012 975 -1872 1804 -1911 1842 l-72 70 -302 70
c-166 38 -304 68 -306 65 -2 -2 25 -132 61 -288 l65 -284 62 -60 c35 -34 942
-908 2016 -1944 l1954 -1884 -84 -86 c-45 -47 -130 -134 -188 -194 l-105 -107
73 -73 72 -72 217 224 c196 202 218 221 223 200 4 -13 15 -95 25 -181 l19
-157 280 -204 c155 -112 287 -207 294 -211 12 -7 395 117 415 134 13 11 44
258 35 274 -6 11 85 100 358 352 l365 337 547 367 c430 288 624 411 902 572
195 113 357 204 359 202 2 -1 -79 -614 -180 -1361 l-182 -1359 222 -1123 222
-1124 -266 -1148 -266 -1148 187 -503 c103 -277 189 -504 190 -506 4 -6 868
-91 873 -86 2 2 -16 752 -41 1666 -25 915 -45 1664 -43 1666 2 2 248 -20 548
-49 386 -38 541 -56 532 -64 -7 -5 -46 -181 -88 -390 -42 -209 -153 -762 -246
-1230 l-171 -850 -49 -445 c-27 -245 -48 -446 -47 -448 5 -4 1330 818 1338
830 4 7 9 10 11 8 2 -3 -270 -644 -604 -1425 -334 -781 -617 -1442 -629 -1470
-19 -46 21 -9 445 415 l465 465 384 535 c210 294 386 541 390 548 6 10 166
1396 166 1439 0 8 -5 11 -12 7 -7 -4 -6 1 3 12 12 15 39 225 118 934 l102 915
110 249 110 248 -38 1656 -39 1656 213 481 c117 264 216 481 221 483 12 4
1705 -447 1713 -456 4 -4 14 -36 24 -72 l17 -65 610 -430 610 -430 501 -173
c496 -170 502 -172 519 -152 9 11 234 332 501 713 l485 694 143 794 142 794
-21 175 c-118 992 -238 1910 -248 1910 -7 0 -453 -114 -991 -254 -538 -140
-1396 -363 -1908 -496 -511 -133 -931 -243 -932 -244 -1 0 47 -352 107 -781
59 -429 106 -781 105 -783 -1 -2 -179 134 -395 301 l-392 305 -789 427 c-434
235 -789 428 -789 430 0 1 46 35 103 74 l103 72 159 352 c87 194 196 436 243
539 l84 188 162 117 c88 64 163 118 165 120 6 5 150 793 151 825 0 14 -36 118
-80 230 l-81 203 -310 255 -311 255 -457 122 c-251 67 -463 122 -471 122 -8 0
-303 -152 -655 -339z"/>
<path d="M496 8855 c4 -16 40 -133 81 -260 677 -2084 1874 -3940 3493 -5416
797 -726 1684 -1339 2650 -1833 362 -185 650 -316 670 -305 8 4 312 26 675 48
363 23 687 43 720 45 33 2 524 35 1092 73 568 38 1034 71 1037 74 3 3 -518
592 -1159 1308 -641 717 -1165 1306 -1165 1309 0 10 -9 21 1196 -1328 631
-707 1155 -1286 1163 -1288 9 -1 990 61 2180 138 1191 77 2179 140 2196 140
26 0 98 55 448 342 230 188 414 345 410 349 -11 9 -6669 1792 -6713 1797 -32
3 -425 -60 -865 -139 -1097 -197 -1845 -370 -2595 -601 -91 -28 -173 -55 -183
-60 -10 -5 -84 -62 -165 -126 -212 -169 -232 -184 -232 -178 0 3 86 73 191
157 105 83 187 155 182 159 -4 4 -80 62 -168 130 -679 525 -1286 1108 -1865
1795 -74 87 -524 596 -999 1130 -475 533 -880 991 -900 1017 -35 45 -1295
1463 -1353 1523 l-29 30 7 -30z"/>
<path d="M12150 6465 c-223 -176 -294 -237 -292 -251 1 -10 114 -446 251 -969
l247 -950 118 0 118 0 179 480 c99 264 180 487 181 496 2 15 -490 1408 -501
1420 -3 4 -139 -98 -301 -226z"/>
</g>
</svg>
