<?xml version="1.0" standalone="no"?>
<!DOCTYPE svg PUBLIC "-//W3C//DTD SVG 20010904//EN"
 "http://www.w3.org/TR/2001/REC-SVG-20010904/DTD/svg10.dtd">
<svg version="1.0" xmlns="http://www.w3.org/2000/svg"
 width="436.000000pt" height="436.000000pt" viewBox="0 0 436.000000 436.000000"
 preserveAspectRatio="xMidYMid meet">
<g id="adress-icon" transform="translate(0.000000,436.000000) scale(0.100000,-0.100000)"
fill="#000000" stroke="none">
<path d="M1945 4354 c-373 -53 -638 -144 -909 -312 -474 -293 -816 -748 -961
-1277 -60 -222 -70 -302 -70 -585 0 -283 10 -363 70 -585 202 -736 784 -1318
1520 -1520 222 -60 302 -70 585 -70 283 0 363 10 585 70 741 203 1334 801
1525 1538 58 223 64 281 65 562 0 288 -9 367 -70 590 -200 729 -777 1311
-1503 1516 -212 59 -305 71 -567 74 -132 2 -253 1 -270 -1z m510 -190 c805
-111 1470 -708 1669 -1503 77 -305 77 -657 0 -962 -181 -721 -742 -1282 -1463
-1463 -305 -77 -657 -77 -962 0 -721 181 -1282 742 -1463 1463 -77 305 -77
657 0 962 89 355 267 670 527 931 445 448 1066 658 1692 572z"/>
<path d="M2042 3448 c-312 -299 -1222 -1192 -1226 -1205 -15 -37 -6 -94 19
-118 23 -24 29 -25 154 -25 l130 0 3 -471 3 -471 28 -24 28 -24 370 0 370 0
24 26 25 27 0 348 0 349 195 0 195 0 0 -344 0 -344 26 -31 26 -31 358 0 358 0
26 31 26 31 0 464 0 464 155 0 c152 0 156 1 180 25 20 19 25 35 25 71 0 46 -2
49 -103 153 -395 406 -1135 1161 -1160 1184 -24 21 -41 27 -75 27 -41 0 -48
-4 -160 -112z m666 -646 l495 -502 -72 0 c-82 0 -121 -16 -139 -55 -9 -19 -12
-149 -12 -480 l0 -455 -210 0 -210 0 0 335 c0 368 -2 381 -58 404 -20 8 -119
11 -350 9 l-322 -3 -27 -28 -28 -27 -3 -345 -3 -345 -224 0 -225 0 0 461 c0
295 -4 467 -10 479 -15 28 -48 43 -102 50 l-47 5 515 503 c283 277 520 502
526 500 7 -3 234 -230 506 -506z"/>
</g>
</svg>
