<?xml version="1.0" standalone="no"?>
<!DOCTYPE svg PUBLIC "-//W3C//DTD SVG 20010904//EN"
 "http://www.w3.org/TR/2001/REC-SVG-20010904/DTD/svg10.dtd">
<svg version="1.0" xmlns="http://www.w3.org/2000/svg"
 width="436.000000pt" height="436.000000pt" viewBox="0 0 436.000000 436.000000"
 preserveAspectRatio="xMidYMid meet">
<g transform="translate(0.000000,436.000000) scale(0.100000,-0.100000)"
fill="#000000" stroke="none">
<path d="M1945 4354 c-373 -53 -638 -144 -909 -312 -474 -293 -816 -748 -961
-1277 -60 -222 -70 -302 -70 -585 0 -283 10 -363 70 -585 202 -736 784 -1318
1520 -1520 222 -60 302 -70 585 -70 283 0 363 10 585 70 741 203 1334 801
1525 1538 58 223 64 281 65 562 0 288 -9 367 -70 590 -200 729 -777 1311
-1503 1516 -212 59 -305 71 -567 74 -132 2 -253 1 -270 -1z m510 -190 c805
-111 1470 -708 1669 -1503 77 -305 77 -657 0 -962 -181 -721 -742 -1282 -1463
-1463 -305 -77 -657 -77 -962 0 -721 181 -1282 742 -1463 1463 -77 305 -77
657 0 962 89 355 267 670 527 931 445 448 1066 658 1692 572z"/>
<path d="M929 3123 c-35 -19 -64 -43 -84 -71 l-30 -44 0 -828 0 -828 30 -44
c20 -28 49 -52 84 -71 l55 -27 1191 0 1191 0 55 28 c35 18 64 42 84 70 l30 44
0 828 0 828 -30 44 c-20 28 -49 52 -84 71 l-55 27 -1191 0 -1191 0 -55 -27z
m2321 -126 c0 -8 -1062 -992 -1070 -992 -5 0 -228 203 -496 450 -268 248 -510
471 -538 497 l-51 47 1078 1 c592 0 1077 -1 1077 -3z m-1900 -461 c184 -170
345 -319 358 -331 l23 -21 -343 -321 c-189 -176 -361 -335 -381 -353 l-37 -32
0 703 0 702 22 -19 c12 -10 173 -158 358 -328z m2028 -706 l-3 -351 -372 347
c-205 191 -373 350 -373 354 0 4 168 163 373 354 l372 347 3 -351 c1 -192 1
-508 0 -700z m-1293 27 c34 -30 66 -50 88 -54 37 -6 37 -6 252 190 l74 69 39
-34 c21 -18 191 -175 376 -348 l337 -315 -541 -3 c-298 -1 -782 -1 -1077 0
l-535 3 378 352 378 352 88 -82 c49 -45 113 -104 143 -130z"/>
</g>
</svg>
