<?xml version="1.0" standalone="no"?>
<!DOCTYPE svg PUBLIC "-//W3C//DTD SVG 20010904//EN"
 "http://www.w3.org/TR/2001/REC-SVG-20010904/DTD/svg10.dtd">
<svg version="1.0" xmlns="http://www.w3.org/2000/svg"
 width="436.000000pt" height="436.000000pt" viewBox="0 0 436.000000 436.000000"
 preserveAspectRatio="xMidYMid meet">
<g transform="translate(0.000000,436.000000) scale(0.100000,-0.100000)"
fill="#000000" stroke="none">
<path d="M1945 4354 c-373 -53 -638 -144 -909 -312 -474 -293 -816 -748 -961
-1277 -60 -222 -70 -302 -70 -585 0 -283 10 -363 70 -585 202 -736 784 -1318
1520 -1520 222 -60 302 -70 585 -70 283 0 363 10 585 70 741 203 1334 801
1525 1538 58 223 64 281 65 562 0 288 -9 367 -70 590 -200 729 -777 1311
-1503 1516 -212 59 -305 71 -567 74 -132 2 -253 1 -270 -1z m510 -190 c805
-111 1470 -708 1669 -1503 77 -305 77 -657 0 -962 -181 -721 -742 -1282 -1463
-1463 -305 -77 -657 -77 -962 0 -721 181 -1282 742 -1463 1463 -77 305 -77
657 0 962 89 355 267 670 527 931 445 448 1066 658 1692 572z"/>
<path d="M2125 3500 c-25 -28 -25 -85 1 -110 15 -16 43 -22 142 -30 316 -28
569 -150 785 -381 186 -198 291 -437 317 -722 13 -137 14 -141 46 -155 37 -17
67 -15 92 8 20 19 22 31 22 114 0 232 -86 496 -233 716 -64 96 -251 283 -347
347 -220 147 -484 233 -715 233 -80 0 -94 -3 -110 -20z"/>
<path d="M1310 3444 c-66 -24 -118 -63 -203 -154 -95 -100 -158 -222 -183
-349 -24 -121 -15 -324 19 -446 113 -404 449 -873 861 -1200 140 -110 207
-152 370 -230 295 -142 431 -180 631 -179 112 1 141 5 210 27 160 53 310 168
365 280 38 78 71 205 72 277 1 65 -18 109 -64 143 -48 36 -497 291 -537 305
-87 30 -156 3 -241 -93 -29 -33 -82 -90 -117 -127 l-64 -67 -72 41 c-254 144
-478 371 -647 658 -16 28 -30 53 -30 56 0 3 43 50 96 105 53 55 102 116 110
134 26 64 18 133 -40 317 -30 95 -66 214 -81 263 -43 142 -74 189 -155 231
-50 26 -237 31 -300 8z m234 -187 c12 -13 33 -56 45 -97 12 -41 47 -153 77
-248 29 -95 54 -183 54 -194 0 -12 -38 -60 -91 -116 -102 -108 -118 -133 -126
-201 -7 -61 18 -119 113 -264 180 -275 432 -512 677 -637 110 -56 154 -62 215
-31 35 18 130 111 234 229 l47 53 238 -137 c131 -74 240 -138 242 -140 9 -9
-20 -126 -46 -185 -21 -48 -37 -68 -87 -105 -228 -172 -431 -165 -850 28 -227
105 -366 207 -591 432 -391 393 -605 791 -605 1125 0 173 41 278 158 402 42
45 90 88 107 95 16 7 61 13 98 14 58 0 71 -3 91 -23z"/>
<path d="M2134 3176 c-48 -21 -59 -74 -24 -118 17 -22 31 -27 97 -32 187 -17
348 -78 478 -181 192 -152 305 -366 322 -607 6 -94 21 -122 67 -134 33 -8 84
21 92 52 10 40 -3 178 -26 274 -27 112 -102 265 -179 368 -140 184 -362 323
-586 366 -124 23 -205 27 -241 12z"/>
<path d="M2133 2818 c-29 -14 -45 -61 -32 -95 14 -37 38 -52 84 -53 95 0 228
-53 307 -121 93 -79 168 -229 168 -336 0 -49 21 -97 45 -107 34 -13 72 -6 93
17 45 48 24 207 -48 352 -86 176 -247 299 -443 339 -87 18 -142 19 -174 4z"/>
</g>
</svg>
