<?xml version="1.0" standalone="no"?>
<!DOCTYPE svg PUBLIC "-//W3C//DTD SVG 20010904//EN"
 "http://www.w3.org/TR/2001/REC-SVG-20010904/DTD/svg10.dtd">
<svg version="1.0" xmlns="http://www.w3.org/2000/svg"
 width="436.000000pt" height="436.000000pt" viewBox="0 0 436.000000 436.000000"
 preserveAspectRatio="xMidYMid meet">
<g transform="translate(0.000000,436.000000) scale(0.100000,-0.100000)"
fill="#000000" stroke="none">
<path d="M1945 4354 c-373 -53 -638 -144 -909 -312 -474 -293 -816 -748 -961
-1277 -60 -222 -70 -302 -70 -585 0 -283 10 -363 70 -585 202 -736 784 -1318
1520 -1520 222 -60 302 -70 585 -70 283 0 363 10 585 70 741 203 1334 801
1525 1538 58 223 64 281 65 562 0 288 -9 367 -70 590 -200 729 -777 1311
-1503 1516 -212 59 -305 71 -567 74 -132 2 -253 1 -270 -1z m145 -679 l0 -505
-424 0 -425 0 24 69 c92 270 233 516 389 680 143 148 248 212 434 260 1 1 2
-226 2 -504z m307 466 c277 -109 547 -458 698 -902 l24 -69 -425 0 -424 0 0
504 0 504 39 -9 c22 -5 62 -17 88 -28z m-906 -127 c-156 -170 -298 -428 -403
-729 l-38 -110 -306 -3 -306 -2 23 37 c194 321 490 597 819 763 67 34 249 110
263 110 5 0 -18 -30 -52 -66z m1470 10 c375 -157 729 -464 935 -812 l25 -42
-306 2 -306 3 -33 100 c-99 292 -251 568 -409 740 -70 77 -71 77 94 9z m-1978
-1135 c-31 -157 -53 -331 -60 -486 l-6 -133 -369 0 -368 0 0 41 c0 148 73 459
150 637 l22 52 327 0 327 0 -23 -111z m1107 -254 l0 -365 -495 0 -495 0 0 69
c0 132 37 416 76 589 l16 72 449 0 449 0 0 -365z m1094 293 c39 -173 76 -457
76 -589 l0 -69 -495 0 -495 0 0 365 0 365 449 0 449 0 16 -72z m846 20 c77
-178 150 -489 150 -637 l0 -41 -368 0 -369 0 -6 133 c-7 155 -29 329 -60 486
l-23 111 327 0 327 0 22 -52z m-3110 -935 c0 -133 43 -477 77 -610 l5 -23
-330 0 -330 0 -17 43 c-77 187 -145 484 -145 626 l0 41 370 0 370 0 0 -77z
m1170 -278 l0 -355 -452 2 -452 3 -17 80 c-30 135 -59 353 -66 493 l-6 132
496 0 497 0 0 -355z m1167 223 c-7 -140 -36 -358 -66 -493 l-17 -80 -452 -3
-452 -2 0 355 0 355 497 0 496 0 -6 -132z m923 91 c0 -142 -68 -439 -145 -626
l-17 -43 -330 0 -330 0 5 23 c34 133 77 477 77 610 l0 77 370 0 370 0 0 -41z
m-3125 -871 c13 -63 107 -304 163 -417 70 -142 189 -324 273 -415 72 -79 73
-79 -92 -10 -379 159 -739 473 -940 822 l-31 52 310 0 310 0 7 -32z m1035
-482 l0 -514 -41 9 c-129 29 -238 97 -375 233 -117 117 -219 264 -299 430 -50
105 -115 269 -130 329 l-7 27 426 0 426 0 0 -514z m1025 487 c-15 -60 -80
-224 -130 -329 -80 -166 -182 -313 -299 -430 -137 -136 -246 -204 -375 -233
l-41 -9 0 514 0 514 426 0 426 0 -7 -27z m788 -23 c-43 -76 -139 -209 -223
-305 -185 -213 -456 -409 -719 -519 -165 -69 -164 -69 -92 10 78 85 193 256
260 387 56 110 141 320 167 415 l17 62 309 0 309 0 -28 -50z"/>
</g>
</svg>
