<?xml version="1.0" standalone="no"?>
<!DOCTYPE svg PUBLIC "-//W3C//DTD SVG 20010904//EN"
 "http://www.w3.org/TR/2001/REC-SVG-20010904/DTD/svg10.dtd">
<svg version="1.0" xmlns="http://www.w3.org/2000/svg"
 width="436.000000pt" height="436.000000pt" viewBox="0 0 436.000000 436.000000"
 preserveAspectRatio="xMidYMid meet">
<g transform="translate(0.000000,436.000000) scale(0.100000,-0.100000)"
fill="#000000" stroke="none">
<path d="M3505 4231 c-28 -12 -582 -567 -610 -611 -39 -62 -45 -115 -45 -387
l0 -258 -370 -370 c-374 -375 -376 -377 -371 -440 5 -49 89 -92 131 -65 8 5
178 172 378 372 l363 363 292 5 c261 5 296 7 332 24 46 23 608 574 630 620 19
38 19 139 0 175 -20 39 -69 78 -113 91 -20 5 -108 10 -194 10 l-158 0 0 163
c0 107 -5 175 -13 199 -15 43 -50 84 -89 104 -29 15 -130 18 -163 5z m-195
-796 l-270 -270 0 165 c0 137 3 170 16 189 9 13 130 136 268 273 l251 251 3
-169 3 -168 -271 -271z m493 -125 c-142 -142 -272 -264 -287 -270 -15 -5 -98
-10 -183 -10 l-157 0 265 265 264 264 175 3 c96 2 177 5 179 6 2 1 -113 -115
-256 -258z"/>
<path d="M1960 3839 c-365 -47 -720 -216 -974 -464 -113 -111 -239 -271 -293
-374 -7 -13 -22 -40 -33 -60 -51 -94 -110 -249 -143 -376 -32 -123 -38 -174
-44 -335 -11 -325 33 -542 165 -820 133 -281 378 -549 651 -714 176 -106 414
-191 621 -222 154 -23 458 -15 600 15 132 29 321 97 437 157 85 44 231 141
302 201 104 86 257 256 326 363 60 92 149 266 180 350 115 315 137 681 58 985
-24 95 -34 115 -64 130 -44 23 -74 18 -109 -17 -29 -29 -32 -36 -27 -77 3 -25
13 -75 22 -111 36 -149 41 -447 9 -595 -40 -186 -55 -229 -130 -380 -64 -131
-60 -123 -152 -247 -79 -107 -200 -231 -272 -281 -25 -17 -47 -34 -50 -38 -12
-15 -132 -86 -220 -130 -201 -99 -367 -139 -600 -146 -231 -8 -370 13 -570 85
-213 76 -394 193 -563 365 -68 69 -187 216 -187 231 0 3 -14 25 -31 50 -66 99
-146 301 -185 471 -26 112 -27 485 -1 590 22 90 45 170 64 220 44 120 122 270
170 330 5 6 16 23 26 38 41 64 228 257 296 307 19 14 47 35 62 48 15 12 30 22
33 22 3 0 30 16 60 35 96 61 288 141 411 171 86 21 277 44 362 44 86 0 276
-24 353 -45 86 -23 117 -20 151 16 39 42 39 87 1 126 -68 67 -468 113 -712 82z"/>
<path d="M2042 3309 c-135 -13 -302 -64 -418 -127 -17 -9 -50 -27 -72 -40 -59
-32 -209 -159 -264 -223 -104 -122 -186 -267 -227 -399 -51 -166 -54 -190 -55
-365 0 -207 10 -259 90 -460 74 -185 237 -383 409 -500 223 -150 440 -212 703
-202 296 11 550 120 762 327 88 87 160 169 160 184 0 3 17 34 38 68 111 188
151 341 152 583 0 152 -14 245 -54 365 -30 87 -60 120 -112 120 -39 0 -83 -38
-85 -74 -2 -41 3 -81 13 -100 47 -88 64 -375 32 -520 -20 -90 -35 -129 -91
-241 -51 -103 -70 -129 -173 -235 -143 -147 -318 -238 -530 -275 -466 -82
-943 210 -1080 660 -60 198 -65 401 -14 550 8 23 14 47 14 55 0 13 76 172 103
215 56 90 182 220 270 278 246 163 550 211 822 131 133 -40 146 -40 183 -9 27
22 32 34 32 69 0 31 -6 48 -22 64 -48 44 -188 84 -357 101 -112 12 -108 12
-229 0z"/>
<path d="M1989 2756 c-97 -28 -200 -89 -266 -157 -58 -60 -93 -103 -93 -115 0
-4 -6 -15 -14 -23 -24 -29 -64 -154 -74 -234 -21 -162 22 -320 122 -453 84
-112 178 -178 321 -225 103 -34 258 -32 372 5 155 50 288 164 360 308 57 114
73 178 73 285 0 90 -1 92 -31 117 -21 18 -42 26 -67 26 -68 -1 -88 -36 -96
-166 -5 -87 -16 -122 -61 -204 -28 -51 -117 -130 -178 -158 -128 -60 -252 -62
-374 -7 -179 81 -287 278 -253 463 17 94 52 165 112 228 90 95 204 144 339
144 58 0 69 3 93 27 14 14 29 37 33 51 8 32 -21 86 -53 101 -42 19 -181 12
-265 -13z"/>
</g>
</svg>
