<?xml version="1.0" standalone="no"?>
<!DOCTYPE svg PUBLIC "-//W3C//DTD SVG 20010904//EN"
 "http://www.w3.org/TR/2001/REC-SVG-20010904/DTD/svg10.dtd">
<svg version="1.0" xmlns="http://www.w3.org/2000/svg"
 width="436.000000pt" height="436.000000pt" viewBox="0 0 436.000000 436.000000"
 preserveAspectRatio="xMidYMid meet">
<g transform="translate(0.000000,436.000000) scale(0.100000,-0.100000)"
fill="#000000" stroke="none">
<path d="M3770 4103 c-458 -45 -908 -239 -1265 -545 -119 -102 -201 -189 -347
-368 l-94 -115 -305 0 c-253 -1 -317 -4 -384 -19 -196 -43 -373 -122 -519
-229 -45 -33 -201 -179 -348 -325 l-268 -266 0 -43 c0 -67 28 -79 203 -88 78
-3 257 -13 397 -21 140 -8 288 -14 328 -14 39 0 72 -2 72 -5 0 -2 -11 -21 -26
-42 -29 -43 -27 -63 12 -124 l24 -39 -120 -142 c-132 -156 -137 -166 -99 -241
89 -173 275 -356 443 -433 41 -18 59 -22 77 -15 13 5 84 59 158 120 73 61 137
111 142 111 5 0 23 -9 41 -20 42 -26 79 -25 112 1 15 12 30 18 34 15 3 -4 10
-77 14 -164 4 -86 15 -283 23 -437 8 -154 15 -295 15 -313 0 -46 38 -82 86
-82 34 0 50 12 232 193 400 395 497 525 585 790 49 145 59 231 64 534 l5 283
87 67 c351 272 558 515 729 858 143 288 232 637 232 908 0 99 -1 106 -29 144
-42 58 -82 73 -188 71 -48 0 -104 -3 -123 -5z m180 -205 c0 -80 -36 -311 -65
-423 -114 -441 -347 -812 -695 -1106 -44 -37 -1066 -832 -1212 -943 l-37 -28
-63 43 c-35 23 -94 67 -131 97 l-69 54 211 213 c181 182 211 216 211 242 0 41
-43 83 -83 83 -27 0 -59 -28 -243 -211 l-212 -211 -73 95 c-41 53 -83 112 -93
131 -17 32 -18 38 -4 53 8 10 239 295 514 633 510 630 617 750 783 878 346
268 806 438 1219 451 l42 1 0 -52z m-2062 -1040 c-24 -29 -149 -182 -277 -340
-128 -159 -236 -289 -239 -291 -4 -2 -68 0 -142 4 -74 4 -245 12 -380 19 -135
7 -267 15 -293 18 l-49 7 184 181 c101 99 214 203 251 231 84 63 222 136 319
167 63 21 97 29 203 50 11 2 121 4 244 5 l223 1 -44 -52z m1000 -1160 c-3
-128 -11 -253 -16 -278 -37 -163 -105 -316 -198 -447 -27 -37 -132 -152 -233
-256 -150 -153 -186 -185 -192 -170 -3 10 -10 92 -13 183 -4 91 -14 275 -21
410 -14 229 -13 246 3 262 9 9 166 132 347 272 182 141 330 256 330 256 0 0
-3 -105 -7 -232z m-1438 -103 c64 -70 171 -170 218 -204 18 -13 32 -27 30 -32
-5 -14 -170 -149 -183 -149 -21 0 -149 96 -201 151 -28 30 -68 80 -88 111 -44
65 -48 49 54 171 l65 77 25 -33 c14 -17 50 -59 80 -92z"/>
<path d="M2953 3320 c-124 -26 -232 -138 -251 -264 -42 -267 231 -469 472
-349 47 24 116 94 144 148 24 44 27 62 27 145 0 83 -3 101 -27 145 -31 61
-104 130 -161 155 -51 23 -147 32 -204 20z m165 -186 c15 -11 38 -41 51 -67
72 -144 -86 -286 -229 -206 -53 30 -84 92 -77 156 6 52 29 88 78 121 28 20 44
23 92 20 36 -3 67 -12 85 -24z"/>
<path d="M2225 2339 c-43 -24 -58 -75 -35 -119 13 -25 65 -41 94 -30 30 11 56
47 56 77 0 50 -73 95 -115 72z"/>
<path d="M780 1185 c-98 -51 -136 -77 -179 -122 -86 -92 -121 -188 -121 -339
0 -87 8 -111 55 -163 54 -59 105 -75 214 -67 224 18 314 83 428 311 62 125 65
135 54 163 -18 43 -65 64 -105 48 -26 -10 -43 -35 -101 -146 -61 -117 -76
-137 -115 -162 -24 -16 -60 -33 -80 -38 -51 -14 -165 -13 -178 3 -16 20 1 176
25 222 31 60 66 87 190 149 115 57 143 82 143 127 0 34 -45 79 -79 79 -14 0
-82 -30 -151 -65z"/>
<path d="M266 399 c-33 -26 -37 -88 -6 -119 29 -29 84 -27 115 5 33 33 32 70
-4 106 -35 34 -68 37 -105 8z"/>
</g>
</svg>
