<?xml version="1.0" standalone="no"?>
<!DOCTYPE svg PUBLIC "-//W3C//DTD SVG 20010904//EN"
 "http://www.w3.org/TR/2001/REC-SVG-20010904/DTD/svg10.dtd">
<svg version="1.0" xmlns="http://www.w3.org/2000/svg"
 width="436.000000pt" height="436.000000pt" viewBox="0 0 436.000000 436.000000"
 preserveAspectRatio="xMidYMid meet">
<g transform="translate(0.000000,436.000000) scale(0.100000,-0.100000)"
fill="#000000" stroke="none">
<path d="M1635 3657 c-85 -33 -142 -93 -164 -173 -6 -21 -11 -83 -11 -136 l0
-98 -353 0 c-395 0 -411 -2 -486 -67 -23 -19 -54 -58 -69 -87 l-27 -51 0
-1070 0 -1070 22 -41 c34 -63 66 -97 125 -129 l53 -30 1455 0 1455 0 55 31
c30 17 70 50 87 73 66 86 64 38 61 1187 l-3 1039 -28 57 c-17 34 -46 72 -71
93 -78 63 -89 65 -481 65 l-353 0 -4 118 c-5 128 -15 161 -72 220 -17 19 -49
43 -71 55 -39 22 -48 22 -565 24 -387 1 -533 -1 -555 -10z m1046 -180 c30 -23
39 -56 39 -141 l0 -86 -541 0 -541 0 4 101 c5 153 -47 139 537 139 366 -1 490
-4 502 -13z m-1471 -1502 l0 -1095 -209 0 c-115 0 -221 4 -235 10 -14 5 -35
24 -46 42 -20 33 -20 47 -18 1056 l3 1024 33 29 32 29 220 0 220 0 0 -1095z
m1760 0 l0 -1095 -790 0 -790 0 0 1095 0 1095 790 0 790 0 0 -1095z m638 1079
c54 -38 52 9 52 -1079 0 -1105 3 -1047 -60 -1080 -23 -12 -71 -15 -240 -15
l-210 0 0 1095 0 1095 218 0 c181 0 221 -3 240 -16z"/>
</g>
</svg>
